HIERARCHY
ROOT Hips
{
	OFFSET 0.000000 0.000000 0.000000
	CHANNELS 6 Xposition Yposition Zposition Xrotation Yrotation Zrotation
	JOINT LeftUpLeg_virtual
	{
		OFFSET 0.000000 0.000000 0.000000
		CHANNELS 3 Xrotation Yrotation Zrotation
		JOINT LeftUpLeg
		{
			OFFSET 13.026900 -6.336304 -1.092800
			CHANNELS 3 Xrotation Yrotation Zrotation
			JOINT LeftLeg
			{
				OFFSET 0.524474 -46.096886 9.782700
				CHANNELS 3 Xrotation Yrotation Zrotation
				JOINT LeftFoot
				{
					OFFSET -0.524474 -53.427422 -12.948200
					CHANNELS 3 Xrotation Yrotation Zrotation
					JOINT LeftToeBase
					{
						OFFSET 0.192200 -14.009700 16.364100
						CHANNELS 3 Xrotation Yrotation Zrotation
						JOINT LeftToe_End
						{
							OFFSET -1.784700 -0.561700 9.474800
							CHANNELS 3 Xrotation Yrotation Zrotation
							End Site
							{
								OFFSET 0 0 0
							}
						}
					}
				}
			}
		}
	}
	JOINT RightUpLeg_virtual
	{
		OFFSET 0.000000 0.000000 0.000000
		CHANNELS 3 Xrotation Yrotation Zrotation
		JOINT RightUpLeg
		{
			OFFSET -12.883000 -6.336304 -1.092800
			CHANNELS 3 Xrotation Yrotation Zrotation
			JOINT RightLeg
			{
				OFFSET -0.524587 -46.096825 9.782800
				CHANNELS 3 Xrotation Yrotation Zrotation
				JOINT RightFoot
				{
					OFFSET 0.524587 -53.427383 -12.948300
					CHANNELS 3 Xrotation Yrotation Zrotation
					JOINT RightToeBase
					{
						OFFSET -0.192200 -14.009700 16.364100
						CHANNELS 3 Xrotation Yrotation Zrotation
						JOINT RightToe_End
						{
							OFFSET 1.784700 -0.561700 9.474800
							CHANNELS 3 Xrotation Yrotation Zrotation
							End Site
							{
								OFFSET 0 0 0
							}
						}
					}
				}
			}
		}
	}
	JOINT Spine_virtual
	{
		OFFSET 0.000000 0.000000 0.000000
		CHANNELS 3 Xrotation Yrotation Zrotation
		JOINT Spine
		{
			OFFSET 0.072000 7.257294 -0.789700
			CHANNELS 3 Xrotation Yrotation Zrotation
			JOINT Spine1
			{
				OFFSET 0.000000 12.508769 -0.658067
				CHANNELS 3 Xrotation Yrotation Zrotation
				JOINT Spine1_split
				{
					OFFSET 0.000000 12.508769 -0.658067
					CHANNELS 3 Xrotation Yrotation Zrotation
					JOINT Spine2
					{
						OFFSET 0.000000 12.508769 -0.658067
						CHANNELS 3 Xrotation Yrotation Zrotation
						JOINT Neck_virtual
						{
							OFFSET 0.000000 0.000000 0.000000
							CHANNELS 3 Xrotation Yrotation Zrotation
							JOINT Neck
							{
								OFFSET 0.000000 14.033295 7.520400
								CHANNELS 3 Xrotation Yrotation Zrotation
								JOINT Head
								{
									OFFSET 0.000000 8.198502 5.703100
									CHANNELS 3 Xrotation Yrotation Zrotation
									JOINT HeadTop_End
									{
										OFFSET 0.000000 17.760803 13.332701
										CHANNELS 3 Xrotation Yrotation Zrotation
										End Site
										{
											OFFSET 0 0 0
										}
									}
								}
							}
						}
						JOINT LeftShoulder_virtual
						{
							OFFSET 0.000000 0.000000 0.000000
							CHANNELS 3 Xrotation Yrotation Zrotation
							JOINT LeftShoulder
							{
								OFFSET 6.292450 5.785301 -0.669000
								CHANNELS 3 Xrotation Yrotation Zrotation
								JOINT LeftShoulder_split
								{
									OFFSET 6.292450 5.785301 -0.669000
									CHANNELS 3 Xrotation Yrotation Zrotation
									JOINT LeftArm
									{
										OFFSET 13.907140 -6.093903 1.965100
										CHANNELS 3 Xrotation Yrotation Zrotation
										JOINT LeftForeArm
										{
											OFFSET 34.140198 0.000000 0.000000
											CHANNELS 3 Xrotation Yrotation Zrotation
											JOINT LeftHand
											{
												OFFSET 40.960209 0.000000 0.000000
												CHANNELS 3 Xrotation Yrotation Zrotation
												End Site
												{
													OFFSET 0 0 0
												}
											}
										}
									}
								}
							}
						}
						JOINT RightShoulder_virtual
						{
							OFFSET 0.000000 0.000000 0.000000
							CHANNELS 3 Xrotation Yrotation Zrotation
							JOINT RightShoulder
							{
								OFFSET -6.292450 5.785301 -0.669000
								CHANNELS 3 Xrotation Yrotation Zrotation
								JOINT RightShoulder_split
								{
									OFFSET -6.292450 5.785301 -0.669000
									CHANNELS 3 Xrotation Yrotation Zrotation
									JOINT RightArm
									{
										OFFSET -13.907140 -6.093903 1.965100
										CHANNELS 3 Xrotation Yrotation Zrotation
										JOINT RightForeArm
										{
											OFFSET -34.140198 0.000000 0.000000
											CHANNELS 3 Xrotation Yrotation Zrotation
											JOINT RightHand
											{
												OFFSET -40.960209 0.000000 0.000000
												CHANNELS 3 Xrotation Yrotation Zrotation
												End Site
												{
													OFFSET 0 0 0
												}
											}
										}
									}
								}
							}
						}
					}
				}
			}
		}
	}
}
MOTION
Frames: 4
Frame Time: 0.03333333
6.837610 118.503143 -0.339375 0.000000 0.000000 0.000000 -1.753465 -15.792927 -3.427356 -11.294664 23.572163 10.734634 15.871599 10.246029 3.943328 -5.200991 7.712778 -9.609154 1.302854 0.211106 -1.086897 0.000000 0.000000 0.000000 -1.266209 -13.553744 -3.495255 -15.899630 -18.829979 -6.192848 10.212492 8.713000 -4.053469 5.181061 8.829712 6.093872 -2.268865 -0.350308 0.193161 0.000000 0.000000 0.000000 -2.599682 -15.103437 -4.191275 0.660661 -0.569285 -0.555737 0.143263 -1.022398 -0.557091 1.066545 -0.961626 0.134998 0.000000 0.000000 0.000000 0.962694 -0.461366 -0.596275 1.209221 1.195447 2.434266 -1.025477 14.750113 -1.259170 0.000000 0.000000 0.000000 0.560095 -0.267069 -0.678826 -0.494234 8.936798 -0.259357 -5.617285 0.102888 -1.030552 40.729197 -59.779428 -27.687480 0.132205 -28.544580 1.457937 0.000000 0.000000 0.000000 1.060717 -0.534847 -1.040352 5.234824 4.743872 -14.439310 1.266607 4.619908 -0.461405 -39.904294 -17.991277 40.677233 179.795140 70.707580 179.958655 0.000000 0.000000 0.000000 
6.582402 118.509689 -0.352867 0.000000 0.000000 0.000000 -1.760783 -15.458919 -3.400262 -11.375300 23.427979 10.956833 15.910381 10.219179 3.971654 -5.101026 7.493529 -9.813811 1.273116 0.216363 -1.077577 0.000000 0.000000 0.000000 -1.262241 -13.215601 -3.470140 -15.711578 -18.598091 -6.092092 10.368904 8.604678 -3.890007 4.924818 8.252165 5.761575 -2.207835 -0.367915 0.189310 0.000000 0.000000 0.000000 -2.592835 -14.764204 -4.162666 0.623090 -0.549839 -0.449312 0.145162 -1.019350 -0.474572 1.056443 -0.859035 0.118085 0.000000 0.000000 0.000000 0.915394 -0.476388 -0.504836 1.135144 1.189186 2.331350 -1.095480 14.603645 -1.236575 0.000000 0.000000 0.000000 0.512758 -0.255253 -0.607603 -0.464221 8.904034 -0.421227 -5.619541 -0.056229 -0.981813 40.832985 -60.026209 -27.592393 0.081070 -28.524282 1.434465 0.000000 0.000000 0.000000 1.042209 -0.521351 -0.975401 5.201593 4.839764 -13.614911 1.242018 4.594208 -0.525212 -37.346115 -15.400121 40.928413 179.917824 71.435651 179.876433 0.000000 0.000000 0.000000 
6.307604 118.534019 -0.366184 0.000000 0.000000 0.000000 -1.762756 -15.091030 -3.373765 -11.459266 23.211809 11.189059 15.945539 10.184206 3.989570 -4.967933 7.284151 -10.021620 1.263047 0.223854 -1.071238 0.000000 0.000000 0.000000 -1.260453 -12.853153 -3.446852 -15.485822 -18.397738 -5.966795 10.485552 8.505492 -3.731116 4.674906 7.671753 5.433117 -2.176753 -0.382653 0.176189 0.000000 0.000000 0.000000 -2.575927 -14.408986 -4.138087 0.582053 -0.536978 -0.342617 0.151758 -1.026716 -0.399343 1.048538 -0.763786 0.088890 0.000000 0.000000 0.000000 0.874513 -0.495745 -0.423534 1.052512 1.184266 2.278937 -1.148071 14.455250 -1.194166 0.000000 0.000000 0.000000 0.475334 -0.253145 -0.543191 -0.434434 8.862813 -0.538267 -5.593072 -0.211306 -0.954083 40.841632 -60.296234 -27.557020 0.023552 -28.443730 1.400310 0.000000 0.000000 0.000000 1.026366 -0.516606 -0.915133 5.154242 4.929043 -12.661606 1.220994 4.565692 -0.597843 -34.722295 -12.679217 41.083219 -179.930761 72.294267 179.769800 0.000000 0.000000 0.000000 
6.015332 118.575523 -0.366425 0.000000 0.000000 0.000000 -1.744768 -14.678054 -3.332742 -11.543442 22.932843 11.411918 15.950192 10.141683 4.003074 -4.802410 7.088383 -10.233789 1.264334 0.232681 -1.066106 0.000000 0.000000 0.000000 -1.248945 -12.459537 -3.412358 -15.236803 -18.247253 -5.826453 10.547100 8.425733 -3.588675 4.431640 7.119459 5.124515 -2.179080 -0.392765 0.160557 0.000000 0.000000 0.000000 -2.542849 -14.033964 -4.104182 0.534587 -0.531675 -0.240990 0.160529 -1.041413 -0.336749 1.039632 -0.655227 0.052338 0.000000 0.000000 0.000000 0.836854 -0.517532 -0.357539 0.951935 1.175205 2.280420 -1.193736 14.291292 -1.120284 0.000000 0.000000 0.000000 0.442324 -0.256304 -0.492257 -0.408974 8.824134 -0.594275 -5.532880 -0.357974 -0.937676 40.762900 -60.591906 -27.593672 -0.038605 -28.293072 1.356762 0.000000 0.000000 0.000000 1.009809 -0.519020 -0.865636 5.096320 5.011827 -11.586408 1.185906 4.511986 -0.659151 -32.000587 -9.807461 41.093546 -179.740840 73.289774 179.631790 0.000000 0.000000 0.000000 
